PathFileType	4	(X/Y/Z)	Patient4_TMGait_0pt4_01_left_33.trc.trc
DataRate	CameraRate	NumFrames	NumMarkers	Units	OrigDataRate	OrigDataStartFrame	OrigNumFrames
72.164948453608	72.164948453608	4	33	mm	72.164948453608	124	       141
Frame#	Time	Sacral			L.Shoulder			Chest			R.Shoulder			Neck			R.ASIS			L.ASIS			R.Thigh.Superior			R.Thigh.Lateral			R.Thigh.Inferior			R.Patella			L.Thigh.Superior			L.Thigh.Lateral			L.Thigh.Inferior			L.Patella			L.Shank.Superior			L.Shank.Lateral			L.Shank.Inferior			R.Shank.Superior			R.Shank.Lateral			R.Shank.Inferior			R.Heel			R.Midfoot.Superior			R.Midfoot.Lateral			R.Toe			L.Heel			L.Midfoot.Lateral			L.Midfoot.Superior			L.Toe			L.Elbow			L.Wrist			R.Elbow			R.Wrist			
		X1	Y1	Z1	X2	Y2	Z2	X3	Y3	Z3	X4	Y4	Z4	X5	Y5	Z5	X6	Y6	Z6	X7	Y7	Z7	X8	Y8	Z8	X9	Y9	Z9	X10	Y10	Z10	X11	Y11	Z11	X12	Y12	Z12	X13	Y13	Z13	X14	Y14	Z14	X15	Y15	Z15	X16	Y16	Z16	X17	Y17	Z17	X18	Y18	Z18	X19	Y19	Z19	X20	Y20	Z20	X21	Y21	Z21	X22	Y22	Z22	X23	Y23	Z23	X24	Y24	Z24	X25	Y25	Z25	X26	Y26	Z26	X27	Y27	Z27	X28	Y28	Z28	X29	Y29	Z29	X30	Y30	Z30	X31	Y31	Z31	X32	Y32	Z32	X33	Y33	Z33	

124	42.464428571429	822.457500430150	999.260829707481	552.775548319336	968.051624120451	1430.308958353136	357.790832319760	1090.459679342197	1365.316639331752	505.979933786427	1025.101357745136	1434.900502965275	689.346679526552	966.639595091035	1490.862755348876	516.847595125653	1060.968275611095	936.005731066335	646.447205132532	1021.636313656045	960.399933765818	373.857130559268	1062.994964718665	724.275331803710	616.163360488206	963.752568865190	626.962967565583	681.806392783292	1021.881337721974	563.825511389459	598.543068629864	1003.936772231135	478.264143255303	602.923211200982	1095.419651215284	768.242703113082	399.121444069274	1034.932012200913	639.603502638392	329.331513769890	1137.284282934122	577.220885281964	386.364091209440	1157.409919260002	509.426349856039	385.560614415916	1136.315674148295	436.374111251759	377.239095329153	1058.747454779630	312.709241662702	327.331873878570	1135.364060219888	206.598988143678	384.197824682905	965.162926852586	393.683884701885	610.669211822223	884.103322866153	299.823680954607	677.470345019775	907.733702084740	201.291893916691	609.662935418076	755.378337965099	44.200351258873	586.311375922544	928.732410998931	96.370852234037	613.645753650542	842.066832736989	36.763568624591	656.831394871100	1049.558752393185	41.268115965386	635.759640023177	1033.408235750761	38.923055520404	420.220226368577	1109.022498105173	38.136716380801	341.662768441073	1187.412079433564	105.497310259204	366.596363939109	1317.984649018165	61.978080313262	342.028451061508	879.428152653293	1087.801184076692	250.488004552076	919.696745441982	828.192510582045	242.639833141067	1080.482395710246	1091.896460363583	808.188778647939	1315.574172955632	1022.379359306072	737.816556121379	
125	42.478285714286	823.770114172755	998.382632468591	549.786238684810	968.574269127889	1429.693270225638	355.311435942114	1090.644832854959	1365.134460492249	503.932182843328	1024.382434065959	1434.402049652564	687.089966591631	966.479226908384	1490.262466933391	514.485280382501	1062.083853998955	935.365555279999	644.605390025779	1023.843288084306	959.652077409369	371.946896729897	1063.559231095436	723.282281893016	614.757963874520	963.418420620879	626.408676234320	680.050041690251	1021.474060029732	562.780410520881	597.132119812151	1002.941749446555	476.860537925933	601.426462827920	1097.262091033843	766.596182027102	398.260418587856	1035.882442227531	638.260529176463	328.855497265714	1137.778420994356	575.740562808218	386.609474977257	1156.586643039786	507.065191297142	386.340544862015	1134.899101473987	433.808545287452	377.805233980265	1055.663262763347	311.099203017577	328.045566008749	1130.118048396944	203.960940582206	385.585774789542	963.128567123613	392.785308271399	609.401413578815	881.097768487729	299.993606453236	676.612162786124	903.510683743652	200.991637736412	609.106035489335	749.869677506180	44.676510464540	586.368529218113	923.320220801030	96.371801726592	613.542393714761	836.553467442720	36.924943829683	656.775835614974	1044.099585069231	41.044461637349	635.816789774420	1024.974299985954	38.342615912624	421.466859781997	1100.599768767594	37.056015696826	342.844744874964	1180.302620582764	102.438419425419	368.675655959137	1310.310047767582	56.608108855991	343.715519500919	879.948053363605	1087.307103067642	247.835858967908	919.883950663467	827.555757816195	241.896518489308	1082.792484320283	1091.388706842678	804.442268148374	1319.044104120492	1028.418701818004	732.739127073918	
126	42.492142857143	825.044474211637	997.675430841021	546.677749483174	969.254605220951	1429.212058132932	352.718009485958	1090.928718638768	1365.062355369986	501.807796343809	1023.753396623487	1434.095132953632	684.724182375134	966.426728808681	1489.824584477488	512.001293971049	1063.153058644218	934.845002027952	642.584382167427	1025.967631939519	959.178891836844	369.881057806304	1064.254853288095	722.466328515112	613.088658633733	963.395717999662	625.944217772830	678.090340633755	1021.465567614885	561.863982896996	595.550572940319	1002.447915071407	475.448306513380	599.851333801223	1099.057014967425	765.233088899613	397.277172798987	1037.004953517652	637.274083918076	328.097355863388	1138.329036176724	574.548140686362	386.732032368974	1155.805605382834	505.111897292291	386.997887341795	1133.696529915552	431.698485323318	378.149698553806	1053.242923381422	309.857797928268	328.240074310891	1125.517438038223	201.853556627867	386.571161281032	961.445647901791	391.925422702506	608.048603338704	878.332380575355	300.322837799559	675.665467827658	899.455933784551	200.808443163709	608.544625407956	744.394300158888	45.428447650706	586.457977149424	918.011898819804	96.423589603436	613.469677194010	831.083426375040	37.202694794201	656.723649280963	1038.690078570534	40.775913402947	635.877196880362	1017.536517890051	37.981127899885	422.223697775440	1093.202014932890	36.378210696135	343.578583770906	1173.911702181577	100.131541347201	370.246358669251	1303.482604305247	52.479182750902	344.975421625098	880.926655441942	1086.824420000689	245.099994175358	920.557549279434	826.957402001328	240.809839591548	1084.969227020820	1091.110518151521	800.755737697682	1322.140456089936	1033.922959545396	728.043520442030	
127	42.506000000000	826.264163693364	997.175959755693	543.473276192803	970.050084993993	1428.914272376024	350.048605041580	1091.303613705255	1365.123761352848	499.611345928585	1023.253582373940	1434.008910380662	682.268073765393	966.481858260314	1489.583532276871	509.429787866449	1064.155817360812	934.487802854709	640.364234244786	1027.956983407995	959.019060045672	367.620643076126	1065.049804985367	721.879440235737	611.155773622953	963.685041529256	625.612352213683	675.950151022182	1021.890983536857	561.116923629561	593.837173344080	1002.520306943515	474.053976894207	598.277075248011	1100.812988933726	764.274534540844	396.118021140438	1038.338731795374	636.678119335048	327.055994633852	1138.960814331898	573.672186945381	386.664779831118	1155.120444732321	503.593219678861	387.479396814702	1132.719014792967	430.050649160993	378.291819390128	1051.444085338720	309.002066809753	327.955920513423	1121.493529357184	200.271512887211	387.204459537744	960.160955899546	391.136725911839	606.665536287086	875.829726428768	300.857974327697	674.656182368399	895.607329926287	200.788637352765	608.014385789676	738.969455004200	46.539967363454	586.589038255492	912.844589166576	96.543805277095	613.453530204479	825.668309950192	37.635752019639	656.684877489916	1033.328568844247	40.462277523792	635.940612841435	1011.007552804123	37.815711329898	422.577638737191	1086.725878084201	36.045673639073	343.937141262657	1168.150818350094	98.550485687794	371.328728731962	1297.410544943326	49.548089465675	345.811305037553	882.420846832922	1086.387905801899	242.292641542321	921.761996062255	826.431233812799	239.370857818275	1086.927059259346	1091.071059770188	797.151760680487	1324.824351374233	1038.828302773975	723.753410539793	
